Format                                   : AVI
Format/Info                              : Audio Video Interleave
File size                                : 480 MiB
Duration                                 : 50mn 4s
Overall bit rate                         : 1 341 Kbps
Writing application                      : Lavf53.18.0

Video
ID                                       : 0
Format                                   : xvid
Codec ID                                 : xvid
Duration                                 : 50mn 4s
Bit rate                                 : 1 200 Kbps
Width                                    : 720 pixels
Height                                   : 402 pixels
Display aspect ratio                     : 16:9
Frame rate                               : 29.970 fps
Bits/(Pixel*Frame)                       : 0.138
Stream size                              : 430 MiB (89%)

Audio
ID                                       : 1
Format                                   : MPEG Audio
Format version                           : Version 1
Format profile                           : Layer 3
Mode                                     : Joint stereo
Mode extension                           : MS Stereo
Codec ID                                 : 55
Codec ID/Hint                            : MP3
Duration                                 : 50mn 4s
Bit rate mode                            : Constant
Bit rate                                 : 128 Kbps
Channel(s)                               : 2 channels
Sampling rate                            : 44.1 KHz
Compression mode                         : Lossy
Stream size                              : 45.8 MiB (10%)
Alignment                                : Aligned on interleaves
Interleave, duration                     : 26 ms (0.78 video frame)